<?xml version="1.0" encoding="UTF-8" standalone="no"?>
<!DOCTYPE svg PUBLIC "-//W3C//DTD SVG 1.1//EN" "http://www.w3.org/Graphics/SVG/1.1/DTD/svg11.dtd">
<svg width="100%" height="100%" viewBox="0 0 32 32" version="1.1" xmlns="http://www.w3.org/2000/svg" xmlns:xlink="http://www.w3.org/1999/xlink" xml:space="preserve" xmlns:serif="http://www.serif.com/" style="fill-rule:evenodd;clip-rule:evenodd;stroke-linejoin:round;stroke-miterlimit:2;">
    <rect x="0" y="0" width="32" height="32" style="fill:white;"/>
    <g id="COQP-GROUP-TM-Logo" serif:id="COQP GROUP TM Logo" transform="matrix(0.0135782,0,0,0.0142209,-11.4838,-10.4996)">
        <g id="Terra-Black-Icon-Logo" serif:id="Terra Black Icon Logo" transform="matrix(9.92917,0,0,9.48044,-3869.65,-1319.23)">
            <g>
                <path d="M595.147,227.974C595.593,227.968 596.04,227.965 596.488,227.965C608.779,227.965 621.122,230.158 633.175,234.465L638.344,236.32L639.191,242.031C640.065,247.913 640.188,250.653 641.153,256.455C643.676,271.752 645.545,287.565 647.169,303.636L647.53,310.314C649.875,314.126 651.347,318.019 651.982,322.057L647.052,323.751C647.905,325.256 648.692,326.869 649.408,328.632C650.809,331.988 651.672,335.564 652.028,339.209L654.094,342.107C657.166,343.811 659.39,346.172 660.867,347.726L660.959,347.828C667.051,354.457 670.818,361.684 672.164,369.319C674.337,379.857 670.321,391.307 662.99,399.48C661.008,401.689 660.581,402.158 659.023,403.455C653.985,407.648 625.449,420.18 625.449,420.18C624.674,434.459 630.16,436.156 624.94,436.4C608.87,437.151 593.035,446.967 593.035,446.967C593.035,446.967 580.162,439.662 560.179,434.845C556.909,434.056 561.394,423.402 557.999,420.18C551.024,413.562 540.242,410.897 533.52,406.018C523.362,398.644 519.746,392.906 518.981,391.262C511.296,381.918 513.757,363.275 522.916,351.602L523.018,351.462L523.129,351.333C523.434,350.973 523.749,350.592 524.048,350.21C525.648,348.22 527.729,345.623 530.872,343.758C531.532,343.086 532.177,342.548 532.695,342.096L533.228,341.644L534.609,340.413L534.614,340.155L534.685,339.682C535.589,332.891 537.427,327.219 540.189,322.708L535.015,321.379L535.091,321.057L535.182,320.745C536.97,314.825 539.534,309.744 542.839,305.647L542.915,305.556C543.311,305.077 543.717,304.647 544.113,304.233L544.154,303.625C545.042,287.296 547.718,271.203 550.302,255.654C551.221,250.127 553.048,247.644 553.9,242.031L554.749,236.331L560.481,234.288C562.339,233.626 564.268,232.944 566.091,232.255L568.297,231.42C566.691,233.546 565.451,236.171 564.515,239.356C562.92,244.77 562.232,251.795 561.988,260.743C560.808,261.405 560.011,262.669 560.011,264.112C560.011,265.556 560.766,266.742 561.885,267.418L561.876,269.359C557.175,270.784 557.746,278.111 558.839,281.985C559.398,283.963 560.011,285.953 561.052,287.721C562.094,289.493 563.625,291.052 565.554,291.759C565.454,291.11 565.422,290.448 565.454,289.795C565.499,288.856 565.679,287.924 565.997,287.043C566.676,285.152 567.926,283.516 568.73,281.673C570.338,278.002 570.135,271.353 565.997,269.568L566.007,267.331C567.046,266.639 567.734,265.46 567.734,264.116C567.734,262.772 567.09,261.675 566.11,260.974C566.685,239.423 569.733,231.135 580.131,228.8L580.613,229.398L580.919,229.369L583.259,229.164L595.091,228.112L595.147,227.974ZM586.528,224.513L586.699,224.449L586.666,224.521C586.62,224.518 586.574,224.516 586.528,224.513Z"/>
            </g>
        </g>
        <g transform="matrix(0.0695391,0,0,0.0676731,1676.68,1142.76)">
            <g id="cloudvi-curves" serif:id="cloudvi curves">
                <g id="Dot">
                    <g>
                        <g>
                            <path id="left_C" d="M766.4,536.9C766.3,537 766.3,537.1 766.2,537.1C781.7,561 787.9,595.2 787.9,628.4C787.9,662 782,695 766.3,718.7L766.4,718.8C777.5,732.5 792.7,742.4 809.8,746.9C832.5,716.1 841,673.4 841,630C841,585.4 831.3,539.4 806.9,508.1C791.4,511.2 780.2,519.6 766.4,536.9ZM746.8,466.7C728.9,460.9 710.2,458 691.3,458.1C654.2,458.1 616.3,473.9 589.5,498.1C579,507.6 570,518.4 562.5,530.4L602,557.1C606.4,550.4 611.3,544 616.3,537.7C632.6,517.3 653.3,496.6 697.1,496.6C701,496.6 704.8,496.8 708.6,497.2C709.1,496.7 709.5,496.1 710,495.6C720.5,483.8 733,474.1 746.8,466.7ZM710.1,763.4C708.6,761.8 707.2,760.1 705.8,758.4C699.3,759.7 692.7,760.3 686.1,760.3C658.7,760.3 620.8,737.8 601.9,716.2C599.7,713.7 597.6,711 595.7,708.2L564.5,741.3C565.5,742.3 566.4,743.4 567.5,744.4C595.4,772.7 651,802 691.3,802C710.4,802.1 729.4,798.8 747.4,792.4C733.5,784.8 720.9,775 710.1,763.4Z"/>
                            <path id="RIGHT_C" d="M919.1,717.8C900.3,739.4 862.5,761.9 835.1,761.9C806.5,761.9 779,750.3 760.1,726.9C740.7,703 733.7,666.8 733.7,629.9C733.7,593.5 741.2,555.8 760.1,531.9C779,508 795.3,497.9 824.2,497.9C867.9,497.9 888.6,518.6 904.8,539C909.8,545.3 914.7,551.7 919.1,558.4L958.5,531.7C951.1,519.7 942,508.9 931.6,499.4C904.8,475.1 867,459.4 830,459.4C787.5,459.4 747.6,472.6 719.7,503.7C691.8,534.8 680.9,583.9 680.9,631.4C680.9,679.5 691.3,726.6 719.7,757.8C747.5,788.3 788,803.4 830,803.4C870.2,803.4 925.7,774 953.4,745.9C954.4,744.9 955.4,743.8 956.4,742.8L925.3,709.6C923.4,712.5 921.3,715.2 919.1,717.8Z"/>
                            <path id="MAIN_CIRCLE_SHAPE" d="M754.8,279.8C551.3,279.8 386.3,383.5 386.3,622.2C386.3,859.2 551.3,964.6 754.8,964.6C958.3,964.6 1123.3,861.2 1123.3,622.2C1123.3,388.7 958.3,279.8 754.8,279.8ZM754.4,912.8C562.6,912.8 473.8,802.7 473.8,622.2C473.8,440.4 563.7,330.4 754.4,330.4C940.1,330.4 1035,444.4 1035,622.2C1035,804.3 952.7,912.8 754.4,912.8Z"/>
                        </g>
                    </g>
                </g>
            </g>
        </g>
        <g transform="matrix(91.0764,0,0,78.8692,1549.06,1033.7)">
            <path d="M7.871,5.184L7.871,7.12L6.129,7.12L6.129,15.857L4.428,15.857L4.428,7.12L2.561,7.12L2.561,5.184L7.871,5.184Z" style="fill:white;fill-rule:nonzero;"/>
        </g>
    </g>
</svg>
